<svg width="311" height="200" viewBox="0 0 311 200" fill="none" xmlns="http://www.w3.org/2000/svg">
<rect width="311" height="200" rx="18" fill="#111111"/>
<rect x="311" y="53" width="94" height="132" transform="rotate(90 311 53)" fill="#5BC4FC"/>
<mask id="mask0_831_1270" style="mask-type:alpha" maskUnits="userSpaceOnUse" x="179" y="53" width="132" height="94">
<rect x="311" y="53" width="94" height="132" transform="rotate(90 311 53)" fill="#5BC4FC"/>
</mask>
<g mask="url(#mask0_831_1270)">
<path d="M152.709 61.0002L162.243 70.5343C164.627 72.9178 168.491 72.9178 170.874 70.5343L176.093 65.3159C178.476 62.9324 182.341 62.9324 184.724 65.3159L189.943 70.5343C192.326 72.9178 196.19 72.9178 198.574 70.5343L203.792 65.3159C206.176 62.9324 210.04 62.9324 212.424 65.3159L217.642 70.5343C220.026 72.9178 223.89 72.9178 226.273 70.5343L231.492 65.3159C233.875 62.9324 237.74 62.9324 240.123 65.3159L245.342 70.5343C247.725 72.9178 251.59 72.9178 253.973 70.5343L259.191 65.3159C261.575 62.9324 265.439 62.9324 267.823 65.3159L273.041 70.5343C275.425 72.9178 279.289 72.9178 281.673 70.5343L286.891 65.3159C289.274 62.9324 293.139 62.9324 295.522 65.3159L300.741 70.5343C303.124 72.9178 306.989 72.9178 309.372 70.5343L314.59 65.3159C316.974 62.9324 320.838 62.9324 323.222 65.3159L328.44 70.5343C330.824 72.9178 334.688 72.9178 337.072 70.5343L342.29 65.3159C344.674 62.9324 348.538 62.9324 350.921 65.3159L356.14 70.5343C358.523 72.9178 362.388 72.9178 364.771 70.5343L369.99 65.3159C372.373 62.9324 376.237 62.9324 378.621 65.3159L383.839 70.5343C386.223 72.9178 390.087 72.9178 392.471 70.5343L397.689 65.3159C400.073 62.9324 403.937 62.9324 406.32 65.3159L411.539 70.5343C413.922 72.9178 417.787 72.9178 420.17 70.5343L425.389 65.3159C427.772 62.9324 431.636 62.9324 434.02 65.3159L439.238 70.5343C441.622 72.9178 445.486 72.9178 447.87 70.5343L453.088 65.3159C455.472 62.9324 459.336 62.9324 461.72 65.3159L466.938 70.5343C469.321 72.9178 473.186 72.9178 475.569 70.5343L480.788 65.3159C483.171 62.9324 487.036 62.9324 489.419 65.3159L498.953 74.85" stroke="white" stroke-width="1.40845"/>
<path d="M152.709 76.9624L162.243 86.4965C164.627 88.88 168.491 88.88 170.874 86.4965L176.093 81.2781C178.476 78.8946 182.341 78.8946 184.724 81.2781L189.943 86.4965C192.326 88.88 196.19 88.88 198.574 86.4965L203.792 81.2781C206.176 78.8946 210.04 78.8946 212.424 81.2781L217.642 86.4965C220.026 88.88 223.89 88.88 226.273 86.4965L231.492 81.2781C233.875 78.8946 237.74 78.8946 240.123 81.2781L245.342 86.4965C247.725 88.88 251.59 88.88 253.973 86.4965L259.191 81.2781C261.575 78.8946 265.439 78.8946 267.823 81.2781L273.041 86.4965C275.425 88.88 279.289 88.88 281.673 86.4965L286.891 81.2781C289.274 78.8946 293.139 78.8946 295.522 81.2781L300.741 86.4965C303.124 88.88 306.989 88.88 309.372 86.4965L314.59 81.2781C316.974 78.8946 320.838 78.8946 323.222 81.2781L328.44 86.4965C330.824 88.88 334.688 88.88 337.072 86.4965L342.29 81.2781C344.674 78.8946 348.538 78.8946 350.921 81.2781L356.14 86.4965C358.523 88.88 362.388 88.88 364.771 86.4965L369.99 81.2781C372.373 78.8946 376.237 78.8946 378.621 81.2781L383.839 86.4965C386.223 88.88 390.087 88.88 392.471 86.4965L397.689 81.2781C400.073 78.8946 403.937 78.8946 406.32 81.2781L411.539 86.4965C413.922 88.88 417.787 88.88 420.17 86.4965L425.389 81.2781C427.772 78.8946 431.636 78.8946 434.02 81.2781L439.238 86.4965C441.622 88.88 445.486 88.88 447.87 86.4965L453.088 81.2781C455.472 78.8946 459.336 78.8946 461.72 81.2781L466.938 86.4965C469.321 88.88 473.186 88.88 475.569 86.4965L480.788 81.2781C483.171 78.8946 487.036 78.8946 489.419 81.2781L498.953 90.8122" stroke="white" stroke-width="1.40845"/>
<path d="M152.709 92.9248L162.243 102.459C164.627 104.842 168.491 104.842 170.874 102.459L176.093 97.2405C178.476 94.857 182.341 94.857 184.724 97.2405L189.943 102.459C192.326 104.842 196.19 104.842 198.574 102.459L203.792 97.2405C206.176 94.857 210.04 94.857 212.424 97.2405L217.642 102.459C220.026 104.842 223.89 104.842 226.273 102.459L231.492 97.2405C233.875 94.857 237.74 94.857 240.123 97.2405L245.342 102.459C247.725 104.842 251.59 104.842 253.973 102.459L259.191 97.2405C261.575 94.857 265.439 94.857 267.823 97.2405L273.041 102.459C275.425 104.842 279.289 104.842 281.673 102.459L286.891 97.2405C289.274 94.857 293.139 94.857 295.522 97.2405L300.741 102.459C303.124 104.842 306.989 104.842 309.372 102.459L314.59 97.2405C316.974 94.857 320.838 94.857 323.222 97.2405L328.44 102.459C330.824 104.842 334.688 104.842 337.072 102.459L342.29 97.2405C344.674 94.857 348.538 94.857 350.921 97.2405L356.14 102.459C358.523 104.842 362.388 104.842 364.771 102.459L369.99 97.2405C372.373 94.857 376.237 94.857 378.621 97.2405L383.839 102.459C386.223 104.842 390.087 104.842 392.471 102.459L397.689 97.2405C400.073 94.857 403.937 94.857 406.32 97.2405L411.539 102.459C413.922 104.842 417.787 104.842 420.17 102.459L425.389 97.2405C427.772 94.857 431.636 94.857 434.02 97.2405L439.238 102.459C441.622 104.842 445.486 104.842 447.87 102.459L453.088 97.2405C455.472 94.857 459.336 94.857 461.72 97.2405L466.938 102.459C469.321 104.842 473.186 104.842 475.569 102.459L480.788 97.2405C483.171 94.857 487.036 94.857 489.419 97.2405L498.953 106.775" stroke="white" stroke-width="1.40845"/>
<path d="M152.709 108.887L162.243 118.421C164.627 120.805 168.491 120.805 170.874 118.421L176.093 113.203C178.476 110.819 182.341 110.819 184.724 113.203L189.943 118.421C192.326 120.805 196.19 120.805 198.574 118.421L203.792 113.203C206.176 110.819 210.04 110.819 212.424 113.203L217.642 118.421C220.026 120.805 223.89 120.805 226.273 118.421L231.492 113.203C233.875 110.819 237.74 110.819 240.123 113.203L245.342 118.421C247.725 120.805 251.59 120.805 253.973 118.421L259.191 113.203C261.575 110.819 265.439 110.819 267.823 113.203L273.041 118.421C275.425 120.805 279.289 120.805 281.673 118.421L286.891 113.203C289.274 110.819 293.139 110.819 295.522 113.203L300.741 118.421C303.124 120.805 306.989 120.805 309.372 118.421L314.59 113.203C316.974 110.819 320.838 110.819 323.222 113.203L328.44 118.421C330.824 120.805 334.688 120.805 337.072 118.421L342.29 113.203C344.674 110.819 348.538 110.819 350.921 113.203L356.14 118.421C358.523 120.805 362.388 120.805 364.771 118.421L369.99 113.203C372.373 110.819 376.237 110.819 378.621 113.203L383.839 118.421C386.223 120.805 390.087 120.805 392.471 118.421L397.689 113.203C400.073 110.819 403.937 110.819 406.32 113.203L411.539 118.421C413.922 120.805 417.787 120.805 420.17 118.421L425.389 113.203C427.772 110.819 431.636 110.819 434.02 113.203L439.238 118.421C441.622 120.805 445.486 120.805 447.87 118.421L453.088 113.203C455.472 110.819 459.336 110.819 461.72 113.203L466.938 118.421C469.321 120.805 473.186 120.805 475.569 118.421L480.788 113.203C483.171 110.819 487.036 110.819 489.419 113.203L498.953 122.737" stroke="white" stroke-width="1.40845"/>
<path d="M152.709 124.85L162.243 134.384C164.627 136.767 168.491 136.767 170.874 134.384L176.093 129.165C178.476 126.782 182.341 126.782 184.724 129.165L189.943 134.384C192.326 136.767 196.19 136.767 198.574 134.384L203.792 129.165C206.176 126.782 210.04 126.782 212.424 129.165L217.642 134.384C220.026 136.767 223.89 136.767 226.273 134.384L231.492 129.165C233.875 126.782 237.74 126.782 240.123 129.165L245.342 134.384C247.725 136.767 251.59 136.767 253.973 134.384L259.191 129.165C261.575 126.782 265.439 126.782 267.823 129.165L273.041 134.384C275.425 136.767 279.289 136.767 281.673 134.384L286.891 129.165C289.274 126.782 293.139 126.782 295.522 129.165L300.741 134.384C303.124 136.767 306.989 136.767 309.372 134.384L314.59 129.165C316.974 126.782 320.838 126.782 323.222 129.165L328.44 134.384C330.824 136.767 334.688 136.767 337.072 134.384L342.29 129.165C344.674 126.782 348.538 126.782 350.921 129.165L356.14 134.384C358.523 136.767 362.388 136.767 364.771 134.384L369.99 129.165C372.373 126.782 376.237 126.782 378.621 129.165L383.839 134.384C386.223 136.767 390.087 136.767 392.471 134.384L397.689 129.165C400.073 126.782 403.937 126.782 406.32 129.165L411.539 134.384C413.922 136.767 417.787 136.767 420.17 134.384L425.389 129.165C427.772 126.782 431.636 126.782 434.02 129.165L439.238 134.384C441.622 136.767 445.486 136.767 447.87 134.384L453.088 129.165C455.472 126.782 459.336 126.782 461.72 129.165L466.938 134.384C469.321 136.767 473.186 136.767 475.569 134.384L480.788 129.165C483.171 126.782 487.036 126.782 489.419 129.165L498.953 138.699" stroke="white" stroke-width="1.40845"/>
</g>
<path d="M25.045 70.54C25.045 75.043 27.382 77.19 30.878 77.19C34.488 77.19 36.673 75.1 36.673 72.155C36.673 69.191 34.773 67.272 31.581 67.272C29.111 67.272 27.135 68.602 26.831 70.73H26.204L26.831 69.267C27.325 66.702 28.636 65.296 31.391 65.543L35.628 65.923V63.795L31.391 63.415C26.793 62.997 25.045 66.284 25.045 70.54ZM27.496 72.345C27.496 70.483 28.769 69.4 31.068 69.4C33.177 69.4 34.222 70.369 34.222 72.155C34.222 74.15 33.082 75.062 30.878 75.062C28.617 75.062 27.496 73.713 27.496 72.345ZM45.3778 63.415C41.4448 63.415 39.2218 66.265 39.2218 70.293C39.2218 74.34 41.4448 77.19 45.3778 77.19C49.2918 77.19 51.5148 74.34 51.5148 70.293C51.5148 66.265 49.2918 63.415 45.3778 63.415ZM45.3778 65.543C46.2898 65.543 47.0498 65.809 47.6388 66.284L42.0148 72.649C41.7678 71.984 41.6538 71.186 41.6538 70.293C41.6538 67.348 42.9838 65.543 45.3778 65.543ZM45.3778 75.062C44.4468 75.062 43.6868 74.796 43.0978 74.302L48.7408 67.956C48.9688 68.621 49.0828 69.4 49.0828 70.293C49.0828 73.257 47.7718 75.062 45.3778 75.062ZM54.1404 71.889C54.1404 75.784 56.6484 77.19 60.0874 77.19C63.2984 77.19 65.5594 75.879 65.5594 73.333C65.5594 71.091 64.1344 70.635 62.4244 70.35V69.723C64.1344 69.438 65.3694 68.868 65.3694 67.006C65.3694 64.726 63.2984 63.415 60.0874 63.415C56.6484 63.415 54.3304 64.821 54.3304 68.089H56.7814C56.7814 66.284 57.5984 65.543 60.0874 65.543C62.2344 65.543 62.9184 66.208 62.9184 67.329C62.9184 68.431 62.2914 68.982 60.9614 68.982H59.0994V71.11H60.9614C62.2914 71.11 63.1084 71.68 63.1084 73.029C63.1084 74.397 62.2344 75.062 60.0874 75.062C57.5984 75.062 56.5914 74.321 56.5914 71.889H54.1404ZM69.8624 77H72.4274C72.4274 71.87 74.1564 69.077 78.1654 67.291V63.605H67.9814V65.733H76.0754L77.5194 65.296V65.923C72.6744 67.747 69.8624 71.205 69.8624 77ZM36.426 94.065C36.426 89.562 34.089 87.415 30.593 87.415C26.983 87.415 24.798 89.505 24.798 92.45C24.798 95.414 26.698 97.333 29.89 97.333C32.36 97.333 34.336 96.003 34.64 93.875H35.267L34.64 95.338C34.146 97.903 32.835 99.309 30.08 99.062L25.843 98.682V100.81L30.08 101.19C34.678 101.608 36.426 98.321 36.426 94.065ZM33.975 92.26C33.975 94.122 32.702 95.205 30.403 95.205C28.294 95.205 27.249 94.236 27.249 92.45C27.249 90.455 28.389 89.543 30.593 89.543C32.854 89.543 33.975 90.892 33.975 92.26ZM50.6612 94.065C50.6612 89.562 48.3242 87.415 44.8282 87.415C41.2182 87.415 39.0332 89.505 39.0332 92.45C39.0332 95.414 40.9332 97.333 44.1252 97.333C46.5952 97.333 48.5712 96.003 48.8752 93.875H49.5022L48.8752 95.338C48.3812 97.903 47.0702 99.309 44.3152 99.062L40.0782 98.682V100.81L44.3152 101.19C48.9132 101.608 50.6612 98.321 50.6612 94.065ZM48.2102 92.26C48.2102 94.122 46.9372 95.205 44.6382 95.205C42.5292 95.205 41.4842 94.236 41.4842 92.45C41.4842 90.455 42.6242 89.543 44.8282 89.543C47.0892 89.543 48.2102 90.892 48.2102 92.26ZM54.013 101H56.578C56.578 95.87 58.307 93.077 62.316 91.291V87.605H52.132V89.733H60.226L61.67 89.296V89.923C56.825 91.747 54.013 95.205 54.013 101ZM64.0925 96.136C64.0925 99.594 66.6005 101.19 70.0965 101.19C73.5355 101.19 75.8155 99.499 75.8155 96.003C75.8155 93.001 74.0295 91.272 71.5595 91.272C69.6595 91.272 68.2535 92.222 67.5315 93.951L66.9995 93.647L67.4555 92.184V89.733H74.7895V87.605H65.0045V93.381L67.8545 94.977C68.5765 94.008 69.5265 93.4 70.8755 93.4C72.5665 93.4 73.3645 94.35 73.3645 96.022C73.3645 98.017 72.3765 99.062 70.0965 99.062C67.6075 99.062 66.5245 98.055 66.5245 96.136H64.0925ZM36.426 118.065C36.426 113.562 34.089 111.415 30.593 111.415C26.983 111.415 24.798 113.505 24.798 116.45C24.798 119.414 26.698 121.333 29.89 121.333C32.36 121.333 34.336 120.003 34.64 117.875H35.267L34.64 119.338C34.146 121.903 32.835 123.309 30.08 123.062L25.843 122.682V124.81L30.08 125.19C34.678 125.608 36.426 122.321 36.426 118.065ZM33.975 116.26C33.975 118.122 32.702 119.205 30.403 119.205C28.294 119.205 27.249 118.236 27.249 116.45C27.249 114.455 28.389 113.543 30.593 113.543C32.854 113.543 33.975 114.892 33.975 116.26ZM39.0363 120.136C39.0363 123.594 41.5443 125.19 45.0403 125.19C48.4793 125.19 50.7593 123.499 50.7593 120.003C50.7593 117.001 48.9733 115.272 46.5033 115.272C44.6033 115.272 43.1973 116.222 42.4753 117.951L41.9433 117.647L42.3993 116.184V113.733H49.7333V111.605H39.9483V117.381L42.7983 118.977C43.5203 118.008 44.4703 117.4 45.8193 117.4C47.5103 117.4 48.3083 118.35 48.3083 120.022C48.3083 122.017 47.3203 123.062 45.0403 123.062C42.5513 123.062 41.4683 122.055 41.4683 120.136H39.0363ZM64.7293 118.065C64.7293 113.562 62.3923 111.415 58.8963 111.415C55.2863 111.415 53.1013 113.505 53.1013 116.45C53.1013 119.414 55.0013 121.333 58.1933 121.333C60.6633 121.333 62.6393 120.003 62.9433 117.875H63.5703L62.9433 119.338C62.4493 121.903 61.1383 123.309 58.3833 123.062L54.1463 122.682V124.81L58.3833 125.19C62.9813 125.608 64.7293 122.321 64.7293 118.065ZM62.2783 116.26C62.2783 118.122 61.0053 119.205 58.7063 119.205C56.5973 119.205 55.5523 118.236 55.5523 116.45C55.5523 114.455 56.6923 113.543 58.8963 113.543C61.1573 113.543 62.2783 114.892 62.2783 116.26ZM66.9609 121.276C66.9609 123.879 69.2409 125.19 72.8319 125.19C76.4039 125.19 78.7029 123.879 78.7029 121.276C78.7029 119.224 77.0879 118.293 75.0549 117.951V117.305C76.5559 117.058 77.9429 116.412 77.9429 114.55C77.9429 112.213 75.4539 111.415 72.8319 111.415C70.1909 111.415 67.7209 112.213 67.7209 114.55C67.7209 116.412 69.0889 117.058 70.5899 117.305V117.951C68.5569 118.293 66.9609 119.091 66.9609 121.276ZM70.1719 115.063C70.1719 113.942 71.0839 113.543 72.8319 113.543C74.5799 113.543 75.4919 113.942 75.4919 115.063C75.4919 116.203 74.5799 116.583 72.8319 116.583C71.0839 116.583 70.1719 116.203 70.1719 115.063ZM69.4119 120.896C69.4119 119.528 70.4379 118.711 72.8319 118.711C75.2069 118.711 76.2519 119.528 76.2519 120.896C76.2519 122.283 75.2069 123.062 72.8319 123.062C70.4379 123.062 69.4119 122.283 69.4119 120.896ZM24.798 143.889C24.798 147.784 27.306 149.19 30.745 149.19C33.956 149.19 36.217 147.879 36.217 145.333C36.217 143.091 34.792 142.635 33.082 142.35V141.723C34.792 141.438 36.027 140.868 36.027 139.006C36.027 136.726 33.956 135.415 30.745 135.415C27.306 135.415 24.988 136.821 24.988 140.089H27.439C27.439 138.284 28.256 137.543 30.745 137.543C32.892 137.543 33.576 138.208 33.576 139.329C33.576 140.431 32.949 140.982 31.619 140.982H29.757V143.11H31.619C32.949 143.11 33.766 143.68 33.766 145.029C33.766 146.397 32.892 147.062 30.745 147.062C28.256 147.062 27.249 146.321 27.249 143.889H24.798ZM45.2479 135.415C41.3149 135.415 39.0919 138.265 39.0919 142.293C39.0919 146.34 41.3149 149.19 45.2479 149.19C49.1619 149.19 51.3849 146.34 51.3849 142.293C51.3849 138.265 49.1619 135.415 45.2479 135.415ZM45.2479 137.543C46.1599 137.543 46.9199 137.809 47.5089 138.284L41.8849 144.649C41.6379 143.984 41.5239 143.186 41.5239 142.293C41.5239 139.348 42.8539 137.543 45.2479 137.543ZM45.2479 147.062C44.3169 147.062 43.5569 146.796 42.9679 146.302L48.6109 139.956C48.8389 140.621 48.9529 141.4 48.9529 142.293C48.9529 145.257 47.6419 147.062 45.2479 147.062ZM65.5643 142.065C65.5643 137.562 63.2273 135.415 59.7313 135.415C56.1213 135.415 53.9363 137.505 53.9363 140.45C53.9363 143.414 55.8363 145.333 59.0283 145.333C61.4983 145.333 63.4743 144.003 63.7783 141.875H64.4053L63.7783 143.338C63.2843 145.903 61.9733 147.309 59.2183 147.062L54.9813 146.682V148.81L59.2183 149.19C63.8163 149.608 65.5643 146.321 65.5643 142.065ZM63.1133 140.26C63.1133 142.122 61.8403 143.205 59.5413 143.205C57.4323 143.205 56.3873 142.236 56.3873 140.45C56.3873 138.455 57.5273 137.543 59.7313 137.543C61.9923 137.543 63.1133 138.892 63.1133 140.26ZM74.5161 135.415C70.5831 135.415 68.3601 138.265 68.3601 142.293C68.3601 146.34 70.5831 149.19 74.5161 149.19C78.4301 149.19 80.6531 146.34 80.6531 142.293C80.6531 138.265 78.4301 135.415 74.5161 135.415ZM74.5161 137.543C75.4281 137.543 76.1881 137.809 76.7771 138.284L71.1531 144.649C70.9061 143.984 70.7921 143.186 70.7921 142.293C70.7921 139.348 72.1221 137.543 74.5161 137.543ZM74.5161 147.062C73.5851 147.062 72.8251 146.796 72.2361 146.302L77.8791 139.956C78.1071 140.621 78.2211 141.4 78.2211 142.293C78.2211 145.257 76.9101 147.062 74.5161 147.062Z" fill="white"/>
<path d="M137.083 107.248H133.351L135.683 92.7598H139.415L137.083 107.248Z" fill="white"/>
<path d="M130.21 92.7598L126.651 102.725L126.229 100.578L124.975 94.0505C124.975 94.0505 124.821 92.7598 123.203 92.7598H117.319L117.25 93.004C118.627 93.3534 119.944 93.9128 121.155 94.6629L124.399 107.248H128.289L134.226 92.7598H130.21Z" fill="white"/>
<path d="M159.571 107.248H163L160.012 92.7595H157.009C156.645 92.7313 156.282 92.8209 155.973 93.0154C155.663 93.2098 155.423 93.499 155.287 93.8409L149.718 107.248H153.611L154.378 105.097H159.134L159.571 107.248ZM155.463 102.124L157.427 96.6975L158.528 102.124H155.463Z" fill="white"/>
<path d="M150.009 96.2442L150.543 93.1434C149.465 92.7494 148.332 92.5322 147.186 92.5C145.334 92.5 140.935 93.3178 140.935 97.2984C140.935 101.043 146.097 101.089 146.097 103.054C146.097 105.019 141.468 104.667 139.937 103.442L139.381 106.678C140.716 107.245 142.153 107.525 143.6 107.5C146.147 107.5 149.99 106.167 149.99 102.539C149.99 98.7713 144.782 98.4186 144.782 96.7829C144.782 95.1473 148.414 95.3527 150.009 96.2442Z" fill="white"/>
<path d="M126.229 100.581L124.975 94.0505C124.975 94.0505 124.821 92.7598 123.203 92.7598H117.319L117.25 93.004C119.276 93.526 121.167 94.4846 122.792 95.814C124.335 97.0678 125.521 98.713 126.229 100.581Z" fill="white"/>
<path d="M31.2692 27.0015C31.6815 26.6826 32.2743 26.7583 32.5932 27.1706C37.1419 33.0511 37.1289 40.744 32.5945 46.632C32.2764 47.045 31.6838 47.122 31.2708 46.8039C30.8578 46.4859 30.7808 45.8932 31.0989 45.4802C35.1125 40.2686 35.1207 33.5234 31.1001 28.3256C30.7812 27.9132 30.8569 27.3205 31.2692 27.0015Z" fill="white"/>
<path d="M27.5023 29.4362C27.9143 29.1169 28.5071 29.1921 28.8264 29.6042C32.2385 34.0076 32.2246 39.7872 28.8281 44.1969C28.51 44.6098 27.9174 44.6867 27.5044 44.3687C27.0915 44.0506 27.0145 43.458 27.3326 43.045C30.2089 39.3107 30.2163 34.4797 27.3343 30.7604C27.015 30.3483 27.0902 29.7555 27.5023 29.4362Z" fill="white"/>
<path d="M25.6918 32.9561C25.3739 32.543 24.7813 32.4658 24.3682 32.7838C23.9551 33.1017 23.878 33.6943 24.1959 34.1074C25.4989 35.8004 25.5068 37.9748 24.1964 39.6748C23.8781 40.0877 23.9548 40.6803 24.3677 40.9986C24.7805 41.3168 25.3732 41.2401 25.6914 40.8273C27.528 38.4447 27.5146 35.3244 25.6918 32.9561Z" fill="white"/>
</svg>
