<svg id="Capa_1" data-name="Capa 1" xmlns="http://www.w3.org/2000/svg">
    <defs>
        <style>
            .cls-1 {
            fill: #fff;
            }
        </style>
    </defs>
    <g>
        <polygon class="cls-1" points="5.68 .6 .38 .6 .38 19.5 12.18 19.5 12.18 15.3 5.68 15.3 5.68 .6"/>
        <path class="cls-1"
              d="m35.88,15.2c-.4-.3-.6-.8-.6-1.5v-4.6h3.4v-3.7h-3.4V.6l-5,1.6v3.2h-1.9v3.7h1.9v4.5c0,1.9.5,3.4,1.5,4.5s2.4,1.6,4.3,1.6c.9,0,1.8-.1,2.6-.4v-3.8c-.4.1-.9.2-1.3.2-.6,0-1.1-.2-1.5-.5Z"/>
        <path class="cls-1"
              d="m70.68,9.5c.9-.3,1.7-.9,2.2-1.7s.8-1.7.8-2.6c0-1.4-.6-2.8-1.8-3.7-1.1-.8-2.8-1.3-4.8-1.3h-9.4v19.3h9.6c1.3,0,2.5-.2,3.7-.6,1-.4,1.8-1,2.4-1.8s.9-1.8.8-2.8c0-1.1-.3-2.1-.9-3s-1.5-1.5-2.6-1.8Zm-8-5.4h3.5c.9,0,1.6.2,2,.5s.7.8.7,1.4-.2,1.1-.6,1.4-1.1.4-2.1.4h-3.5v-3.7Zm6.2,11.1h0c-.4.3-1.1.5-2.1.5h-4.1v-4h4.1c1,0,1.7.2,2.1.5s.6.9.6,1.6c0,.6-.2,1.1-.6,1.4Z"/>
        <rect class="cls-1" x="76.18" y="5.4" width="5" height="14.1"/>
        <path class="cls-1"
              d="m54.28,12.5c-.7-.7-1.7-1.2-3.2-1.5l-2.4-.5c-.4-.1-.7-.2-1.1-.4-.2-.1-.3-.3-.3-.5,0-.3.2-.6.5-.8.4-.2.9-.3,1.3-.3.7,0,1.5.1,2.2.4.7.2,1.4.6,2.1,1v-4c-.4-.2-.8-.3-1.2-.4-1-.3-2-.4-3-.4-1.1,0-2.2.2-3.3.6-.9.3-1.6.9-2.2,1.7-.6.6-.9,1.4-.8,2.3,0,1.1.3,2,1,2.6.6.6,1.7,1.1,3.1,1.4l2.3.5c.6.1,1.1.3,1.3.4.2.1.3.4.3.6,0,.3-.2.6-.5.7-.4.2-.9.3-1.3.3-1,0-1.9-.2-2.8-.4-.9-.3-1.7-.6-2.5-1.1v4.1c1.4.6,3.2.9,5.3.9,1.9,0,3.5-.4,4.6-1.2,1.1-.7,1.7-2,1.7-3.3-.1-1.1-.5-2-1.1-2.7Z"/>
        <path class="cls-1"
              d="m24.18,5.9c-1.1-.6-2.3-.9-3.5-.9-1.3,0-2.6.3-3.7,1-1.1.6-1.9,1.5-2.5,2.6-.6,1.2-.9,2.5-.9,3.8,0,1.5.3,2.8.9,3.9.6,1.1,1.6,2,2.7,2.5,1.2.6,2.6.9,4.2.9.9,0,1.7-.1,2.5-.3v-3.8l-.2.1c-.7.2-1.4.3-2.1.3-1,0-1.8-.2-2.4-.7-.5-.5-.8-1.3-.9-2.4h8.8v-.7c0-1.3-.2-2.6-.8-3.8-.3-1-1.1-1.9-2.1-2.5Zm-5.7,4.7c.3-1.4,1.1-2.2,2.3-2.2,1.3,0,2,.7,2.2,2.2h-4.5Z"/>
        <path class="cls-1"
              d="m92.58,15.7c-.5,0-1.1-.2-1.5-.5s-.6-.8-.6-1.5v-4.6h3.4v-3.7h-3.4V.6l-5,1.6v3.2h-1.9v3.7h1.9v4.6c0,1.9.5,3.4,1.5,4.5s2.4,1.6,4.3,1.6c.9,0,1.8-.1,2.6-.4v-3.8c-.5,0-.9.1-1.3.1Z"/>
        <path class="cls-1"
              d="m43.08,1.7c-.3-.4-.8-.7-1.4-.7-.9,0-1.6.7-1.6,1.6,0,.6.3,1.1.8,1.4-.2.7-.7,1.2-1.3,1.5,0,0,3.1.6,3.8-1.9.2-1-.2-1.6-.3-1.9Z"/>
    </g>
    <path class="cls-1"
          d="m100.08,10l.7.9c.9,1.1,2,1.7,3.2,1.7,2.2,0,4.1-2,4.3-2.4l.1-.1c-2.6-1.7-5.3-3.3-7.9-5-.4-.3-.9-.4-1.3-.1s-.4.8-.2,1.2c.4,1.4.8,2.6,1.1,3.8Z"/>
    <path class="cls-1"
          d="m109.78,12.5c0,.7-.4,1.3-.9,1.6-2.7,1.7-5.4,3.4-8.1,5.1-.1.1-.3.2-.4.2-.3.3-.8.2-1.1,0-.3-.2-.5-.7-.3-1.1.2-.7.4-1.4.7-2.1.3-1,.7-2,.9-3.1.1-.5.1-1.1,0-1.6,3.8,4.7,8.5-.7,8.4-.8.4.4.8.9.8,1.8Z"/>
</svg>